<svg width="59" height="53" viewBox="0 0 59 53" fill="none" xmlns="http://www.w3.org/2000/svg">
<g clip-path="url(#clip0_51_27)">
<path d="M57.8678 9.36941L45.0412 4.18442C44.3098 3.88878 43.4529 4.03287 42.8911 4.53834L32.7076 13.6862L26.372 7.99493C26.0112 7.67083 25.5218 7.48864 25.0117 7.48864H1.92391C1.14574 7.48864 0.444073 7.90974 0.146423 8.55557C-0.151228 9.20141 0.013327 9.94475 0.563571 10.4391L19.2398 27.2161V35.7526L7.5477 40.4792C6.85721 40.7584 6.41321 41.3752 6.41321 42.0554C6.41321 42.7356 6.85733 43.3525 7.5477 43.6315L20.3742 48.8165C21.1034 49.1112 21.964 48.9659 22.5242 48.4626C23.5373 47.5526 44.599 28.6327 45.612 27.7227C45.9649 27.4058 46.1756 26.959 46.1756 26.5007V17.2483L57.8677 12.5219C59.3765 11.9118 59.3782 9.97984 57.8678 9.36941ZM19.2398 44.5673L13.0257 42.0554L19.2398 39.5434V44.5673ZM23.0877 43.0677V36.8702V30.6728L29.9867 36.8702L23.0877 43.0677ZM32.7076 34.4261L6.5689 10.9455H24.2147L41.5305 26.5004L32.7076 34.4261ZM42.3276 16.1305V22.328L35.4285 16.1305L42.3276 9.93316V16.1305ZM46.1755 13.4575V8.43353L52.3897 10.9454L46.1755 13.4575Z" fill="black"/>
</g>
<defs>
<clipPath id="clip0_51_27">
<rect width="59" height="53" fill="white"/>
</clipPath>
</defs>
</svg>
